<svg width="20" height="20" viewBox="0 0 20 20" fill="none" xmlns="http://www.w3.org/2000/svg">
<g clip-path="url(#clip0_2418_42431)">
<path d="M10 13.75C12.0711 13.75 13.75 12.0711 13.75 10C13.75 7.92893 12.0711 6.25 10 6.25C7.92893 6.25 6.25 7.92893 6.25 10C6.25 12.0711 7.92893 13.75 10 13.75Z" stroke="#969696" stroke-width="1.25" stroke-linecap="round" stroke-linejoin="round"/>
<path d="M15.4217 6.30469C15.6098 6.57396 15.7745 6.85886 15.9139 7.15625L17.9373 8.28125C18.19 9.41287 18.1927 10.586 17.9452 11.7188L15.9139 12.8438C15.7745 13.1411 15.6098 13.426 15.4217 13.6953L15.4608 16.0156C14.6032 16.7971 13.5883 17.3858 12.4842 17.7422L10.492 16.5469C10.1643 16.5703 9.83536 16.5703 9.50765 16.5469L7.52328 17.7344C6.4157 17.3845 5.39741 16.798 4.5389 16.0156L4.57796 13.7031C4.39146 13.4301 4.22688 13.1428 4.08578 12.8438L2.06234 11.7188C1.80968 10.5871 1.80702 9.41401 2.05453 8.28125L4.08578 7.15625C4.22522 6.85886 4.38988 6.57396 4.57796 6.30469L4.5389 3.98438C5.39644 3.20294 6.41139 2.61422 7.51546 2.25781L9.50765 3.45313C9.83536 3.42968 10.1643 3.42968 10.492 3.45313L12.4764 2.26563C13.584 2.61554 14.6023 3.20199 15.4608 3.98438L15.4217 6.30469Z" stroke="#969696" stroke-width="1.25" stroke-linecap="round" stroke-linejoin="round"/>
</g>
<defs>
<clipPath id="clip0_2418_42431">
<rect width="20" height="20" fill="white"/>
</clipPath>
</defs>
</svg>
