<svg width="26" height="25" viewBox="0 0 26 25" fill="none" xmlns="http://www.w3.org/2000/svg">
<path d="M0.814209 3.50581C0.814209 2.72428 1.08867 2.07952 1.63758 1.57155C2.18648 1.06356 2.90008 0.80957 3.77833 0.80957C4.64091 0.80957 5.3388 1.05964 5.87204 1.55983C6.42094 2.07563 6.6954 2.74772 6.6954 3.57615C6.6954 4.3264 6.4288 4.9516 5.89556 5.45179C5.34666 5.96759 4.62522 6.22549 3.73128 6.22549H3.70776C2.84517 6.22549 2.14729 5.96759 1.61405 5.45179C1.08082 4.93599 0.814209 4.28732 0.814209 3.50581ZM1.12003 24.0207V8.35904H6.34253V24.0207H1.12003ZM9.23608 24.0207H14.4586V15.2755C14.4586 14.7284 14.5213 14.3064 14.6468 14.0094C14.8663 13.478 15.1996 13.0286 15.6466 12.6613C16.0936 12.294 16.6542 12.1103 17.3286 12.1103C19.0851 12.1103 19.9634 13.2904 19.9634 15.6506V24.0207H25.1859V15.041C25.1859 12.7277 24.637 10.9732 23.5391 9.7775C22.4413 8.58177 20.9906 7.98391 19.1871 7.98391C17.1639 7.98391 15.5878 8.8514 14.4586 10.5864V10.6333H14.4351L14.4586 10.5864V8.35904H9.23608C9.26744 8.8592 9.28313 10.4144 9.28313 13.0247C9.28313 15.635 9.26744 19.3003 9.23608 24.0207Z" fill="white"/>
</svg>
